<svg width="32" height="32" viewBox="0 0 100 100" fill="none" xmlns="http://www.w3.org/2000/svg">
  <path
    d="M97.5 50C97.5 76.2335 76.2335 97.5 50 97.5C23.7665 97.5 2.5 76.2335 2.5 50C2.50001 23.7665 23.7665 2.50001 50 2.50001C76.2335 2.50001 97.5 23.7665 97.5 50Z"
    fill="black" stroke="#D9D9D9" stroke-width="5" />
  <mask id="mask0_120_66" style="mask-type:luminance" maskUnits="userSpaceOnUse" x="0" y="0" width="100" height="100">
    <path
      d="M100 50C100 77.6142 77.6142 100 50 100C22.3858 100 2.88096e-07 77.6142 2.70221e-06 50C5.11632e-06 22.3858 22.3858 8.47354e-06 50 1.08877e-05C77.6142 1.33018e-05 100 22.3858 100 50Z"
      fill="white" />
  </mask>
  <g mask="url(#mask0_120_66)">
    <path
      d="M43.5208 63.3549C43.5208 39.0033 25.6307 17.6898 -1.1174 5.93165L-7.71367 3.2924C-9.55289 4.52954 -11.3168 5.82468 -13 7.17381C-10.7621 7.92968 -8.57692 8.75376 -6.44947 9.64238C19.1605 20.3394 36.4009 40.3874 36.4009 63.3549C36.4009 77.4133 29.9415 90.3779 19.057 100.774C17.5671 102.197 15.9943 103.572 14.3438 104.894C16.6101 105.66 18.9304 106.355 21.2994 106.977L25.9663 102.684C37.0068 91.6337 43.5208 78.0415 43.5208 63.3549Z"
      fill="#D9D9D9" />
    <path
      d="M55.4674 61.9873C55.4674 77.3185 62.5653 91.4556 74.4993 102.754L79.377 107C81.7722 106.374 84.1177 105.672 86.408 104.898C84.6873 103.6 83.0439 102.247 81.4833 100.844C69.6635 90.2176 62.5873 76.7016 62.5873 61.9873C62.5873 39.0339 79.8066 18.9965 105.39 8.29459C107.537 7.39686 109.741 6.56483 112 5.80228C110.244 4.47693 108.407 3.20813 106.495 2.00001L99.8387 4.68187C73.2385 16.4643 55.4674 37.7168 55.4674 61.9873Z"
      fill="#D9D9D9" />
  </g>
</svg>